<svg width="68" height="28" viewBox="0 0 68 28" xmlns="http://www.w3.org/2000/svg"><title>Logo Monli</title><g fill-rule="evenodd" fill-opacity=".699"><path d="M63.289 9.008a1.857 1.857 0 0 0 1.849-1.845c0-1.064-.818-1.88-1.85-1.88-1.03 0-1.848.816-1.848 1.88 0 .994.818 1.845 1.849 1.845zm-8.072-1.312c.32-1.313.853-3.3 1.6-5.429 1.067 1.242 1.458 3.158 1.458 4.896 0 3.584-3.196 12.377-5.083 15.006.13-4.05 1.527-12.451 2.025-14.473zm-9.832 12.468l.039 4.436c0 1.736.786 3.317 2.648 3.317a4.04 4.04 0 0 0 2.225-.663c.414-.266.943-.794 1.385-1.35.878 1.344 2.106 1.803 3.144 1.803 1.804 0 3.31-1.326 4.493-3.692.405 2.55 1.828 3.692 3.507 3.692 1.743 0 3.628-1.242 5.12-6.316l-.817-.248c-1.102 3.725-2.382 5.18-3.485 5.18-1.173 0-1.706-1.632-1.706-3.726 0-1.845.426-4.435.817-6.386.285-1.384.498-2.59.498-3.087 0-.497-.213-.745-.64-.745-.569 0-1.636.461-2.24.852-.34 3.095-1.105 6.384-1.167 8.901-1.17 3.152-2.5 4.226-3.527 4.226-1.016 0-1.966-.546-2.28-2.174-.07-.366-.045-.22-.045-.22 2.739-3.31 6.734-13.82 6.734-17.936 0-2.235-.675-4.897-2.062-5.819-.178-.106-.285-.142-.427-.142-.533 0-1.813.674-2.702 1.384-.96 2.129-1.92 5.464-2.205 6.493-1.209 4.364-2.169 9.65-2.169 12.986 0 1.162.118 2.139.32 2.957.068.272.145.527.23.766-.622.646-1.494 1.254-2.3 1.254-.945 0-1.219-.77-1.219-1.652l-.276-1.544c.002-.024.008-.042.007-.067-.003-.077-.007-1.762-.007-1.762 0-.004-1.893-1.867-1.893-.718zM19.748 26.17c.76.177 1.611.302 2.282.346 0 .392-.12.785-.186 1.177h-4.288v-7.492c0-1.72-.547-2.696-1.773-2.696-1.983 0-3.647 2.595-3.647 6.143v2.547c.732.163 1.537.28 2.177.321 0 .392-.12.785-.185 1.177H9.944v-7.492c0-1.72-.547-2.696-1.773-2.696-1.983 0-3.647 2.595-3.647 6.143v2.547c.732.163 1.536.28 2.176.321 0 .392-.12.785-.185 1.177H.236c-.07-.392-.188-.785-.188-1.177.635-.044 1.507-.17 2.285-.371V20.58a31.86 31.86 0 0 0-.135-2.79 8.08 8.08 0 0 1-1.983.13c-.132-.309-.178-.78-.178-1.175 1.001-.126 2.23-.415 3.41-1.06h.433s.477 1.631.61 3.726c.92-2.28 2.597-3.71 4.615-3.71 1.972 0 2.935 1.364 3.024 3.644.925-2.241 2.59-3.643 4.588-3.643 2.072 0 3.03 1.505 3.03 3.997l.001 6.47m8.706-8.852c-2.084 0-3.579 1.9-3.563 4.638.015 2.606 1.357 4.36 3.35 4.36 2.08 0 3.575-1.907 3.559-4.655-.015-2.596-1.356-4.343-3.346-4.343zm5.537 4.146c0 3.794-2.595 6.465-6.01 6.465-3.232 0-5.281-2.392-5.281-5.778 0-3.81 2.593-6.446 6-6.446 3.24 0 5.291 2.385 5.291 5.759z"/><path d="M47.579 26.145a13.49 13.49 0 0 0 2.285.372c0 .392-.327.435-.398.828l-2.5-.11-1.535-4.503-.044-2.531c0-1.72-.578-2.696-1.862-2.696-2.079 0-3.826 2.595-3.826 6.143v2.559c.71.166 1.466.27 2.035.31 0 .392-.118.784-.188 1.176H35.41c-.07-.392-.188-.784-.188-1.176a13.49 13.49 0 0 0 2.285-.372V20.58c0-.997-.063-1.994-.133-2.773a8.075 8.075 0 0 1-1.98.129c-.132-.309-.178-.78-.178-1.175 1.001-.126 2.23-.415 3.41-1.059h.432s.455 1.552.598 3.764c.947-2.311 2.694-3.764 4.792-3.764 2.139 0 3.13 1.505 3.13 3.997v6.445"/></g></svg>